<?xml version="1.0" encoding="utf-8"?>
<!-- Generator: Adobe Illustrator 24.0.2, SVG Export Plug-In . SVG Version: 6.00 Build 0)  -->
<svg version="1.1" id="Слой_1" xmlns="http://www.w3.org/2000/svg" xmlns:xlink="http://www.w3.org/1999/xlink" x="0px" y="0px"
	 viewBox="0 0 116.5 94.3" style="enable-background:new 0 0 116.5 94.3;" xml:space="preserve">
<style type="text/css">
	.st0{opacity:0.15;}
	.st1{fill:#056ED0;}
	.st2{fill:#FEFFFE;}
	.st3{fill:#C2C4EF;}
	.st4{fill:#182276;}
	.st5{fill:#FF825A;}
	.st6{fill:#FFFFFF;}
	.st7{fill:#FFA75E;}
	.st8{fill:#FCD4CB;}
	.st9{fill:#FFCA9F;}
	.st10{fill:#FC957E;}
	.st11{fill:#0052EB;}
	.st12{fill:#D9E8FF;}
	.st13{fill:#24C8D1;}
	.st14{fill:#E9F2FF;}
</style>
<g>
	<g class="st0">
		<ellipse cx="58.5" cy="89.8" rx="57.3" ry="4.8"/>
	</g>
	<g>
		<g>
			<g>
				<rect x="81.4" y="69.2" class="st1" width="24.3" height="8.4"/>
			</g>
			<g>
				<rect x="62.9" y="69.2" class="st2" width="18.5" height="8.4"/>
			</g>
			<g>
				<rect x="62.8" y="70.9" class="st3" width="18.5" height="0.7"/>
			</g>
			<g>
				<rect x="62.8" y="75.1" class="st3" width="18.5" height="0.7"/>
			</g>
			<g>
				<rect x="62.8" y="73" class="st3" width="18.5" height="0.7"/>
			</g>
			<g>
				<rect x="62.1" y="68" class="st1" width="43.5" height="1.2"/>
			</g>
			<g>
				<rect x="62.1" y="77.6" class="st1" width="43.5" height="1.2"/>
			</g>
		</g>
		<g>
			<g>
				<rect x="102.4" y="78.7" class="st4" width="4.3" height="10.7"/>
			</g>
			<g>
				<rect x="63.9" y="79.9" class="st2" width="30.7" height="8.4"/>
			</g>
			<g>
				<g>
					<rect x="71.3" y="81.7" class="st3" width="12.6" height="0.7"/>
				</g>
				<g>
					<rect x="66.5" y="83.8" class="st3" width="17.3" height="0.7"/>
				</g>
				<g>
					<rect x="66.5" y="85.9" class="st3" width="17.3" height="0.7"/>
				</g>
			</g>
			<g>
				<rect x="83.8" y="79.9" class="st4" width="21.5" height="8.4"/>
			</g>
			<g>
				<rect x="62.5" y="78.7" class="st4" width="43.5" height="1.2"/>
			</g>
			<g>
				<rect x="62.5" y="88.3" class="st4" width="43.5" height="1.2"/>
			</g>
		</g>
		<g>
			<polygon class="st5" points="58.2,71.6 58.2,75.9 60.4,74 62.7,75.9 62.7,71.6 			"/>
		</g>
		<g>
			<g>
				<g>
					<rect x="27.6" y="1.5" class="st6" width="55.5" height="36.9"/>
				</g>
				<g>
					<g>
						<g>
							<path class="st7" d="M62.8,22.4l-0.1,0.3c-0.5,0.8-1.1,0.9-1.9,0.5l-8.1-3.8C51.9,19,51.5,17.9,52,17l0.1-0.3
								c0.5-0.8,1.5-1.2,2.4-0.7l7,4.1C62.3,20.5,63.3,21.5,62.8,22.4z"/>
						</g>
						<g>
							<polygon class="st7" points="70.2,15.2 71.2,16.8 62.2,23.3 60.1,20.9 							"/>
						</g>
						<g>
							<path class="st8" d="M71,16.9c0,0.1,0.7-0.1,0.8-0.1c0.4-0.1,0.8-0.4,1.1-0.7c0.4-0.4,0.8-1,1.1-1.6c0.1-0.3,0.2-0.6,0.3-0.9
								c0-0.2,0.1-0.3,0.1-0.5l0,0c0-0.2-0.2-0.4-0.4-0.3c-0.1,0-0.2,0.1-0.2,0.1c-0.3,0.1-0.6,0.2-0.9,0.4
								c-0.9,0.5-2.4,0.9-2.8,1.9C70.6,16,70.6,16.2,71,16.9z"/>
						</g>
					</g>
					<g>
						<path class="st9" d="M45.3,35.7l13.2-1L57.2,18c-0.1-1.7-1.4-2.5-2.8-2.9c-0.7-0.2-1.4-0.3-2.2-0.5c-0.4-0.1-1.7-0.7-2-0.5
							l-1.1,0.5c-0.9,0.4-1.9,0.8-2.9,1.2c-1.4,0.5-2.4,1.6-2.3,3.2L45.3,35.7z"/>
					</g>
					<g>
						<g>
							<path class="st8" d="M50.9,15.9L50.9,15.9c0.7-0.1,1.2-0.8,1-1.5l-0.6-3l-2.6,0.5l0.6,3C49.5,15.6,50.2,16,50.9,15.9z"/>
						</g>
						<g>
							<path class="st10" d="M48.6,11.2l2.6-0.5l0.6,3.3c-1.2,0-2.5-0.6-2.9-1.7c-0.1-0.2-0.2-0.5-0.2-0.8L48.6,11.2z"/>
						</g>
						<g>
							<path class="st8" d="M52.3,13.1c0.2-0.1,0.4-0.2,0.5-0.4c0.5-0.5,0.6-1.4,0.5-2.1c0-0.4-1-5.4-1-5.4l-5.1,1
								c0.2,0.9,0.4,1.9,0.5,2.8c0.2,0.9,0.2,1.8,0.6,2.7C48.9,13.1,50.9,13.7,52.3,13.1z"/>
						</g>
						<g>
							<path class="st10" d="M51.9,10.4C51.9,10.4,51.8,10.4,51.9,10.4L51.7,10V9.9c0,0,0,0,0.1,0h0.4l-0.8-1.1V8.7h0.1l0.9,1.2V10
								c0,0,0,0.1-0.1,0.1l-0.3,0l0.1,0.2C52,10.3,52,10.4,51.9,10.4L51.9,10.4z"/>
						</g>
						<g>
							<path class="st6" d="M52.7,10.2c0,0.4-0.4,0.8-0.8,0.9c-0.5,0.1-0.9-0.1-1.1-0.5L52.7,10.2z"/>
						</g>
						<g>
							<path class="st4" d="M48,11.6c0.4,0.1,0.8-0.2,0.9-0.6c0.1-0.4,0-0.8-0.2-1.1c-0.1-0.2-0.2-0.4-0.3-0.6c0-0.2,0-0.5,0.2-0.6
								c0.1-0.1,0.2-0.1,0.3-0.1c0.2-0.1,0.2-0.4,0.2-0.6c0-0.2-0.1-0.4-0.1-0.6c0-0.5,0.6-0.8,1-0.8c0.5,0,0.9,0.2,1.4,0.2
								c0.5,0.1,1.1,0,1.6-0.3c0.4-0.3,0.6-1,0.3-1.5c-0.3-0.4-0.9-0.5-1.4-0.4s-1,0.3-1.5,0.3c-0.6,0-1.3-0.2-1.9-0.4
								c-0.6-0.2-1.3-0.3-1.9,0c-0.6,0.3-1,1.1-0.8,1.8c0.2,0.5,0.6,1,0.4,1.5c-0.1,0.3-0.5,0.5-0.6,0.8c-0.5,1.1,0.8,0.9,1.3,1.2
								C47.5,10.1,47,11.4,48,11.6z"/>
						</g>
					</g>
					<g>
						<g>
							<path class="st7" d="M41.3,28.2L41,28.1c-0.9-0.4-1-1.1-0.5-1.9L44,18c0.4-0.9,1.5-1.2,2.3-0.8l0.3,0.1
								c0.9,0.4,1.2,1.5,0.8,2.3l-3.8,7.1C43.2,27.7,42.2,28.6,41.3,28.2z"/>
						</g>
						<g>
							<polygon class="st7" points="39,37.4 37.3,36.8 40.5,26.2 43.6,26.8 							"/>
						</g>
					</g>
					<g>
						<polygon class="st7" points="50.7,16.8 48.4,15.2 49,14.2 51.2,15.8 						"/>
					</g>
					<g>
						<polygon class="st7" points="51.9,16.7 52.8,14.9 52,14 51.2,15.8 						"/>
					</g>
				</g>
				<g>
					<rect x="64.4" y="10" class="st9" width="14.1" height="1.5"/>
				</g>
				<g>
					<rect x="64.4" y="5.3" class="st9" width="14.1" height="1.5"/>
				</g>
				<g>
					<g>
						<rect x="27.6" y="34.2" class="st4" width="55.5" height="4.2"/>
					</g>
					<g>
						<g>
							<rect x="28.7" y="35.4" class="st6" width="1.9" height="1.9"/>
						</g>
						<g>
							<polygon class="st6" points="33.4,37.3 33.4,35.4 35.4,36.3 							"/>
						</g>
					</g>
				</g>
			</g>
		</g>
		<g>
			<g>
				<path class="st11" d="M57.3,66.7c0.1-1.3,1.3-2.6,2.5-3.2c2.6-1.2,5.7-1.5,7.9-3.6c2.1-2.1,2.8-5.3,1.8-8.1
					c-1.5-4-5.8-5-9.7-4.4c-0.5,0.1-1,0.2-1.5,0c-0.6-0.3-0.9-0.9-1-1.6c-0.6-4.1,0.1-8.6-2.2-12.4c-2.5-4.1-8-5.1-12.2-2.9
					c-3,1.6-4.5,4.4-5,7.6c-0.4,2.1,1.1,8-1.4,9.3c-0.4,0.2-0.9,0.2-1.3,0.2c-4.1-0.3-7.9-0.4-9.6,4.2c-1.5,3.9,0.4,8.2,4.3,9.7
					l5.7,2.2c1.2,0.5,2,1.6,2,3c0,4.1-4,2.6-6.4,2.6c-2.6,0-4.7,2.4-5.5,4.7C23.5,79.9,28,84,33,86.2c6.2,2.8,13.2,3.7,19.9,2.8
					c5.6-0.8,14.5-3.1,16.6-9.1c0.7-2,0.5-4.3-0.3-6.3c-0.6-1.3-1.4-2.5-2.6-3.3c-2-1.3-4.6-0.2-6.8-0.7c-1.1-0.3-2.1-1-2.4-2.1
					C57.3,67.2,57.3,66.9,57.3,66.7z"/>
			</g>
			<g>
				<g>
					<g>
						<path class="st12" d="M47.3,57.8C47.3,57.8,47.2,57.8,47.3,57.8L41,55.9c-0.2,0-0.2-0.2-0.2-0.4s0.2-0.2,0.4-0.2l6.2,1.9
							c0.2,0,0.2,0.2,0.2,0.4C47.5,57.7,47.4,57.8,47.3,57.8z"/>
					</g>
					<g>
						<path class="st12" d="M47.3,78.3C47.3,78.3,47.2,78.3,47.3,78.3L41,76.4c-0.2,0-0.2-0.2-0.2-0.4c0-0.2,0.2-0.2,0.4-0.2
							l6.2,1.9c0.2,0,0.2,0.2,0.2,0.4C47.5,78.3,47.4,78.3,47.3,78.3z"/>
					</g>
				</g>
				<g>
					<g>
						<path class="st12" d="M47.8,57.8c-0.1,0-0.2-0.1-0.3-0.2c0-0.2,0-0.3,0.2-0.4l6.2-1.9c0.2,0,0.3,0,0.4,0.2
							c0,0.2,0,0.3-0.2,0.4L47.8,57.8L47.8,57.8z"/>
					</g>
					<g>
						<path class="st12" d="M47.8,78.3c-0.1,0-0.2-0.1-0.3-0.2c0-0.2,0-0.3,0.2-0.4l6.2-1.9c0.2,0,0.3,0,0.4,0.2
							c0,0.2,0,0.3-0.2,0.4L47.8,78.3L47.8,78.3z"/>
					</g>
				</g>
				<g>
					<path class="st12" d="M47.8,86.5c-0.2,0-0.3-0.1-0.3-0.3v-42c0-0.2,0.1-0.3,0.3-0.3s0.3,0.1,0.3,0.3v42
						C48.1,86.3,47.9,86.5,47.8,86.5z"/>
				</g>
			</g>
		</g>
		<g>
			<g>
				
					<rect x="97.9" y="77.8" transform="matrix(0.9776 -0.2103 0.2103 0.9776 -14.4572 22.6469)" class="st8" width="2.7" height="3"/>
			</g>
			<g>
				<path class="st1" d="M105.3,80.2l0.2,1.1l-4.9,1.1c-0.1-0.1-0.2-0.3-0.3-0.4c0,0.2,0,0.3,0,0.5l-1.7,0.4L98.2,81l2.7-0.6
					L105.3,80.2z"/>
			</g>
			<g>
				<polygon class="st9" points="97.2,79.3 101.2,78.4 98.1,63.3 93.6,62.6 				"/>
			</g>
			<g>
				<g>
					<polygon class="st10" points="90.3,58.7 90.1,60.3 80.3,60 80.5,57.2 					"/>
				</g>
			</g>
			<g>
				
					<rect x="94.4" y="85.1" transform="matrix(1 -5.746725e-03 5.746725e-03 1 -0.4961 0.5517)" class="st8" width="2.7" height="3"/>
			</g>
			<g>
				<path class="st1" d="M101.4,88.7v1.1h-5c-0.1-0.2-0.1-0.3-0.2-0.5c0,0.2-0.1,0.3-0.1,0.5h-1.8v-1.7H97L101.4,88.7z"/>
			</g>
			<g>
				<path class="st7" d="M98.2,71.2l0.2-0.4c0.6-1.3,0.1-2.8-1.2-3.4l-13.8-7c-1.3-0.6-0.5,1.5-1.1,2.7l-0.2,0.4
					c-0.6,1.3-0.1,2.8,1.2,3.4l11.5,5.5C96.1,73,97.6,72.5,98.2,71.2z"/>
			</g>
			<g>
				<polygon class="st7" points="93.5,85.6 97.6,85.7 98.6,69.8 93.4,68.8 				"/>
			</g>
			<g>
				<path class="st13" d="M76.3,64.4h11.3V50.9c0-1.3-1-2.1-2.2-2.5c-0.6-0.2-1.2-0.4-1.8-0.5c-0.3-0.1-1.4-0.6-1.7-0.6l-1,0.3
					c-0.8,0.3-1.7,0.6-2.5,0.8c-1.2,0.3-2.2,1.1-2.2,2.5L76.3,64.4L76.3,64.4z"/>
			</g>
			<g>
				<path class="st9" d="M79.1,68.6h5.7c1.6,0,2.8-1.3,2.8-2.8v-1.4H76.3v1.4C76.3,67.3,77.6,68.6,79.1,68.6z"/>
			</g>
			<g>
				<path class="st9" d="M98.2,64l-0.1-0.5c-0.2-1.4-1.4-2.4-2.8-2.3l-19,3c0,0,3.9-0.2,4.1,1.2l0.1,0.5c0.2,1.4,3.4,2.7,4.8,2.6
					L96,66.8C97.3,66.7,98.3,65.5,98.2,64z"/>
			</g>
			<g>
				<g>
					<path class="st8" d="M82.1,49L82.1,49c0.6,0.1,1.2-0.4,1.2-1l0.2-2.6l-2.2-0.2l-0.2,2.6C81.1,48.3,81.5,48.9,82.1,49z"/>
				</g>
				<g>
					<path class="st10" d="M81.4,44.5l2.2,0.2l-0.3,2.9c-1-0.3-1.9-1.1-2-2.1c0-0.2,0-0.5,0-0.7L81.4,44.5z"/>
				</g>
				<g>
					<path class="st8" d="M84,47c0.2,0,0.4-0.1,0.5-0.2c0.5-0.3,0.8-1,0.9-1.6c0.1-0.3,0.5-4.7,0.5-4.7l-4.4-0.4
						c-0.1,0.8-0.2,1.6-0.2,2.4c-0.1,0.8-0.3,1.6-0.2,2.3C81.2,46.1,82.7,47.2,84,47z"/>
				</g>
				<g>
					<path class="st10" d="M84.3,44.6L84.3,44.6l-0.1-0.3l0,0l0,0l0.4,0.1l-0.4-1.1v-0.1h0.1l0.4,1.2l0,0l0,0l-0.4-0.1V44.6
						C84.4,44.6,84.4,44.6,84.3,44.6L84.3,44.6z"/>
				</g>
				<g>
					<path class="st6" d="M85,44.8c-0.1,0.4-0.5,0.6-0.9,0.6s-0.7-0.3-0.8-0.7L85,44.8z"/>
				</g>
			</g>
			<g>
				<g>
					<path class="st8" d="M75.2,59.4l-0.3-0.1c-0.8-0.3-0.8-1-0.5-1.8l2-7.1c0.3-0.8,1.1-1.2,1.9-0.9l0.3,0.1
						c0.8,0.3,1.2,1.1,0.9,1.9l-2.9,6.8C76.4,59.1,75.9,59.7,75.2,59.4z"/>
				</g>
				<g>
					<polygon class="st8" points="85.4,58.2 85.2,59.8 75.4,59.5 75.6,56.7 					"/>
				</g>
				<g>
					<path class="st8" d="M84.7,58.9c-0.1,0,0.2,0.6,0.2,0.7c0.2,0.4,0.4,0.6,0.7,0.9c0.4,0.3,1,0.6,1.5,0.7
						c0.3,0.1,0.5,0.1,0.8,0.1c0.1,0,0.3,0,0.4,0l0,0c0.2,0,0.3-0.2,0.2-0.4c0-0.1-0.1-0.1-0.1-0.2c-0.1-0.3-0.3-0.5-0.5-0.7
						c-0.5-0.7-1.7-1.7-2.6-1.9C84.8,58.6,85.3,58.5,84.7,58.9z"/>
				</g>
				<g>
					<path class="st13" d="M79.5,49.3c0.6,1.1,0.6,2.4,0.2,3.6c-0.4,1.2-1,2.3-1.7,3.3c-1.2-0.2-2.4-0.4-3.6-0.5
						c0.5-1.5,1-3.2,1.6-4.7c0.2-0.6,0.5-1.2,0.9-1.6C77.6,48.9,78.7,49,79.5,49.3z"/>
				</g>
			</g>
			<g>
				<g>
					<polygon class="st14" points="85.3,62.1 89.2,62.3 90.1,61.3 85.3,61.5 					"/>
				</g>
				<g>
					<polygon class="st14" points="90,61.7 85.3,61.7 85.3,61.5 90,61.2 					"/>
				</g>
				<g>
					<polygon class="st6" points="89.2,62.3 99.8,61.1 101.7,53.4 91.4,53.4 					"/>
				</g>
			</g>
			<g>
				<path class="st4" d="M86.7,41.7c0.1-0.1,0.2-0.2,0.2-0.3c0.1-0.4-0.1-0.8-0.4-1.1c-0.7-0.9-1.6-1.6-2.6-2
					c-0.3-0.1-0.6-0.3-1-0.3c-0.3,0-0.7,0.1-0.9,0.4c-0.2,0.2-0.3,0.6-0.5,0.8c-0.3,0.2-0.6-0.1-1,0c-0.2,0.1-0.4,0.3-0.5,0.5
					s0,0.5,0,0.7c0.1,0.5,0.2,1,0.1,1.4s-0.3,0.8-0.2,1.2c0,0.4,0.3,0.7,0.6,0.8c0.3,0.1,0.8,0,1-0.3c0.1-0.2,0.2-0.4,0.2-0.6
					c0.1-0.4,0-0.7,0.1-1.1c0.1-0.3,0.3-0.7,0.6-0.8c0.4-0.2,0.9,0,1.3,0.2c0.5,0.3,1,0.5,1.6,0.7c0.3,0.1,0.6,0.1,0.9,0.1
					C86.4,42,86.6,41.9,86.7,41.7z"/>
			</g>
		</g>
		<g>
			<g>
				<path class="st1" d="M25,46.3c3.9,4.3,7.3,9,10,14.1c2.1,3.3,9.1,16.9,4.2,19.7c-5.1,2.7-15.9-11.4-18.9-14
					c-3.1-3.3-6-6.6-8.8-10.2C9,52.7,4.2,48,2.9,44c-1.1-3.4,0.8-6.9,4-8.2c4.6-1.9,9.3,2.2,12.8,5.3C21.6,42.7,23.4,44.4,25,46.3z"
					/>
			</g>
			<g>
				<path class="st12" d="M34.7,73.1c-0.1,0-0.2,0-0.2-0.1C26.9,61.3,18.1,50.6,8,41c-0.1-0.1-0.1-0.3,0-0.4c0.1-0.1,0.3-0.1,0.4,0
					C18.5,50.2,27.4,61,35,72.7c0.1,0.1,0,0.3-0.1,0.4C34.8,73.1,34.8,73.1,34.7,73.1z"/>
			</g>
			<g>
				<g>
					<g>
						<path class="st12" d="M21.1,64.2c-0.1,0-0.3-0.1-0.3-0.2c0-0.2,0.1-0.3,0.2-0.4c1.5-0.4,3.1-0.7,4.6-1c0.2,0,0.3,0.1,0.3,0.2
							c0,0.2-0.1,0.3-0.2,0.3C24.3,63.5,22.7,63.8,21.1,64.2C21.2,64.2,21.1,64.2,21.1,64.2z"/>
					</g>
					<g>
						<path class="st12" d="M28.4,61.2h-0.1c-0.1-0.1-0.2-0.3-0.1-0.4c0.7-1.4,1.4-2.8,2.1-4.3c0.1-0.1,0.2-0.2,0.4-0.1
							c0.1,0.1,0.2,0.2,0.1,0.4c-0.7,1.5-1.4,2.9-2.1,4.3C28.6,61.1,28.5,61.2,28.4,61.2z"/>
					</g>
				</g>
				<g>
					<g>
						<path class="st12" d="M17.3,59.5c-0.1,0-0.2-0.1-0.3-0.2c0-0.2,0.1-0.3,0.2-0.4c1.5-0.4,3.1-0.8,4.6-1.2
							c0.2,0,0.3,0.1,0.4,0.2c0,0.2-0.1,0.3-0.2,0.4C20.5,58.7,18.9,59,17.3,59.5C17.4,59.5,17.3,59.5,17.3,59.5z"/>
					</g>
					<g>
						<path class="st12" d="M24.5,56.2h-0.1c-0.1-0.1-0.2-0.2-0.1-0.4c0.7-1.4,1.3-2.9,2-4.4c0.1-0.1,0.2-0.2,0.4-0.2
							c0.1,0.1,0.2,0.2,0.2,0.4c-0.6,1.5-1.3,2.9-2,4.4C24.7,56.2,24.6,56.2,24.5,56.2z"/>
					</g>
				</g>
				<g>
					<g>
						<path class="st12" d="M13.4,54.9c-0.1,0-0.2-0.1-0.3-0.2c0-0.2,0-0.3,0.2-0.4c1.5-0.5,3.1-0.9,4.6-1.3c0.2,0,0.3,0,0.4,0.2
							c0,0.2,0,0.3-0.2,0.4C16.5,54,15,54.4,13.4,54.9L13.4,54.9z"/>
					</g>
					<g>
						<path class="st12" d="M20.4,51.4h-0.1c-0.1-0.1-0.2-0.2-0.2-0.4c0.6-1.5,1.2-2.9,1.8-4.4c0.1-0.2,0.2-0.2,0.4-0.2
							c0.2,0.1,0.2,0.2,0.2,0.4c-0.6,1.5-1.2,3-1.8,4.4C20.6,51.3,20.5,51.4,20.4,51.4z"/>
					</g>
				</g>
				<g>
					<g>
						<path class="st12" d="M9.2,50.5c-0.1,0-0.2-0.1-0.3-0.2c-0.1-0.2,0-0.3,0.2-0.4c1.5-0.5,3-1,4.5-1.5c0.2-0.1,0.3,0,0.4,0.2
							c0,0.2,0,0.3-0.2,0.4C12.3,49.4,10.8,49.9,9.2,50.5C9.3,50.5,9.3,50.5,9.2,50.5z"/>
					</g>
					<g>
						<path class="st12" d="M16.1,46.7H16c-0.2-0.1-0.2-0.2-0.2-0.4c0.6-1.5,1.1-3,1.7-4.5c0.1-0.2,0.2-0.2,0.4-0.2
							c0.2,0.1,0.2,0.2,0.2,0.4c-0.5,1.5-1.1,3-1.7,4.5C16.4,46.7,16.2,46.7,16.1,46.7z"/>
					</g>
				</g>
				<g>
					<g>
						<path class="st12" d="M24.7,69c-0.1,0-0.3-0.1-0.3-0.2c0-0.2,0.1-0.3,0.2-0.3c1.5-0.3,3.1-0.6,4.7-0.8c0.2,0,0.3,0.1,0.3,0.2
							c0,0.2-0.1,0.3-0.2,0.3C27.9,68.4,26.3,68.7,24.7,69C24.8,69,24.8,69,24.7,69z"/>
					</g>
					<g>
						<path class="st12" d="M32.1,66.3H32c-0.1-0.1-0.2-0.3-0.1-0.4c0.8-1.4,1.5-2.8,2.3-4.2c0.1-0.1,0.3-0.2,0.4-0.1
							c0.1,0.1,0.2,0.3,0.1,0.4c-0.7,1.4-1.5,2.8-2.3,4.2C32.3,66.2,32.2,66.3,32.1,66.3z"/>
					</g>
				</g>
				<g>
					<g>
						<path class="st12" d="M29.3,73.3c-0.1,0-0.3-0.1-0.3-0.3c0-0.2,0.1-0.3,0.2-0.3c1.1-0.2,2.2-0.3,3.3-0.5
							c0.2,0,0.3,0.1,0.3,0.3c0,0.2-0.1,0.3-0.3,0.3C31.5,73,30.4,73.2,29.3,73.3L29.3,73.3z"/>
					</g>
					<g>
						<path class="st12" d="M35.3,71.1C35.2,71.1,35.2,71.1,35.3,71.1c-0.2-0.1-0.3-0.3-0.2-0.4c0.6-1,1.2-2,1.7-3
							c0.1-0.1,0.3-0.2,0.4-0.1c0.1,0.1,0.2,0.3,0.1,0.4c-0.6,1-1.2,2-1.7,3C35.5,71,35.4,71.1,35.3,71.1z"/>
					</g>
				</g>
				<g>
					<g>
						<path class="st12" d="M6.3,45.7c-0.1,0-0.2-0.1-0.3-0.2c-0.1-0.2,0-0.3,0.2-0.4c1-0.4,2.1-0.8,3.1-1.1c0.1-0.1,0.3,0,0.4,0.2
							c0.1,0.2,0,0.3-0.2,0.4C8.5,45,7.4,45.4,6.3,45.7C6.4,45.7,6.3,45.7,6.3,45.7z"/>
					</g>
					<g>
						<path class="st12" d="M11.7,42.2C11.6,42.2,11.6,42.2,11.7,42.2c-0.2-0.1-0.3-0.2-0.3-0.4c0.4-1.1,0.7-2.2,1.1-3.3
							c0.1-0.2,0.2-0.2,0.4-0.2s0.2,0.2,0.2,0.4c-0.4,1.1-0.7,2.2-1.1,3.3C11.9,42.2,11.8,42.2,11.7,42.2z"/>
					</g>
				</g>
			</g>
		</g>
		<g>
			<path class="st9" d="M76.2,89.8c0-0.4,0-0.8-0.1-1.2c-0.4-4.4-2.6-9-6.6-10.7C65,76.1,60,78.2,56,80.8c-2.5,1.6-5.3,3.4-8.1,2.5
				c-2.9-0.9-4.1-4.2-5.1-7.1c-1.7-4.4-4.3-8.8-8.6-10.5c-4-1.5-8.6-0.3-11.9,2.4c-3.3,2.7-5.4,6.6-6.6,10.7
				c-1,3.4-1.6,6.9-2.7,10.3c-0.1,0.2-0.2,0.5-0.3,0.7H76.2z"/>
		</g>
	</g>
</g>
</svg>
